<svg width="60" height="61" viewBox="0 0 60 61" fill="none" xmlns="http://www.w3.org/2000/svg">
<path d="M52.377 37.2488C53.1334 34.914 53.5176 32.4788 53.5176 29.9975C53.5176 27.5253 53.1363 25.0989 52.3844 22.7715C54.0378 22.1506 55.5412 21.1565 56.7893 19.8346C58.9464 17.5511 60.0848 14.5637 59.9951 11.424C59.8092 4.94167 54.3849 -0.179934 47.9017 0.00504049C44.7613 0.0948315 41.8446 1.40208 39.6874 3.686C38.5981 4.83946 37.7693 6.17237 37.2267 7.61384C34.8987 6.86245 32.4725 6.48102 29.9994 6.48102C27.5248 6.48102 25.0967 6.86339 22.7674 7.61571C21.0874 3.17 16.7878 0 11.761 0C5.27587 0 0 5.27587 0 11.7605C0 16.7868 3.17047 21.086 7.61618 22.7655C6.86339 25.0953 6.48148 27.5235 6.48148 29.9975C6.48148 32.4788 6.86562 34.914 7.62204 37.2488C3.17316 38.9269 0 43.2278 0 48.2565C0 50.0266 0.383663 51.7287 1.14056 53.3148C1.19027 53.419 1.26002 53.5124 1.34584 53.5897C1.43165 53.667 1.53185 53.7266 1.6407 53.7651C1.74956 53.8036 1.86494 53.8203 1.98025 53.8143C2.09556 53.8082 2.20855 53.7795 2.31276 53.7298C2.52311 53.6292 2.68494 53.4493 2.76275 53.2295C2.84055 53.0097 2.82795 52.768 2.72773 52.5575C2.0843 51.2095 1.75831 49.7625 1.75831 48.2565C1.75831 42.7416 6.24564 38.2547 11.761 38.2547C17.2768 38.2547 21.7641 42.7416 21.7641 48.2565C21.7641 53.7717 17.2768 58.2587 11.761 58.2587C9.24543 58.2587 6.84088 57.3214 4.99102 55.6193C4.6335 55.2907 4.07705 55.314 3.74872 55.6712C3.67053 55.7561 3.60985 55.8556 3.57014 55.964C3.53043 56.0725 3.51246 56.1876 3.51727 56.303C3.52209 56.4183 3.54958 56.5316 3.59818 56.6363C3.64678 56.7411 3.71554 56.8352 3.80053 56.9133C5.97591 58.9149 8.80304 60.017 11.761 60.017C16.795 60.017 21.1002 56.8374 22.7747 52.3816C25.1013 53.1326 27.5272 53.5139 29.9994 53.5139C32.472 53.5139 34.8984 53.1326 37.2248 52.3821C38.8996 56.838 43.2046 60.017 48.2387 60.017C54.7238 60.017 59.9996 54.7411 59.9996 48.2565C59.9996 43.2278 56.8265 38.9264 52.377 37.2488ZM40.9659 4.89303C42.8002 2.95068 45.2815 1.83896 47.9524 1.76241C48.0492 1.75967 48.146 1.7583 48.2428 1.75831C53.6267 1.75831 58.0824 6.05843 58.2371 11.4739C58.3137 14.1443 57.3457 16.6847 55.5114 18.6275C53.677 20.5699 51.1957 21.6817 48.5248 21.7582C48.428 21.7609 48.3312 21.7623 48.2344 21.7623C42.8505 21.7623 38.3948 17.4622 38.2401 12.0468C38.1631 9.37625 39.1315 6.83549 40.9659 4.89303ZM36.7317 50.6934C34.5655 51.3976 32.3049 51.7556 29.9994 51.7556C27.6948 51.7556 25.4342 51.3976 23.2678 50.6934C23.4372 49.8921 23.5225 49.0753 23.5224 48.2564C23.5224 41.7717 18.2461 36.4964 11.761 36.4964C10.9207 36.4964 10.1011 36.5856 9.31037 36.7537C8.60013 34.5796 8.23979 32.3108 8.23979 29.9975C8.23979 27.6915 8.59837 25.43 9.30392 23.2614C10.1116 23.4339 10.9351 23.5208 11.761 23.5206C13.7758 23.5206 15.7635 23.0022 17.5103 22.0219C17.9335 21.7843 18.084 21.2486 17.8464 20.8251C17.6088 20.4016 17.073 20.2513 16.6496 20.4889C15.165 21.3219 13.4744 21.7623 11.761 21.7623C6.24517 21.7623 1.75831 17.2754 1.75831 11.76C1.75831 6.24517 6.24564 1.75831 11.761 1.75831C17.2768 1.75831 21.7641 6.24517 21.7641 11.7605C21.7641 14.0679 20.9596 16.3189 19.499 18.0996C19.1907 18.4747 19.2458 19.0287 19.6212 19.3368C19.8015 19.4846 20.0331 19.5548 20.2651 19.5318C20.4971 19.5089 20.7105 19.3948 20.8584 19.2146C22.576 17.1207 23.5224 14.473 23.5224 11.76C23.5224 10.9181 23.4322 10.0961 23.2633 9.30346C25.4314 8.59779 27.6934 8.23933 29.9994 8.23933C32.3049 8.23933 34.5659 8.59743 36.7331 9.30205C36.5393 10.2205 36.4551 11.1587 36.4822 12.0971C36.6649 18.465 41.9032 23.521 48.234 23.5206C49.0612 23.5207 49.8862 23.4344 50.6956 23.2633C51.4008 25.4309 51.7594 27.6925 51.7594 29.9976C51.7594 32.3108 51.3986 34.5798 50.6888 36.7537C49.8834 36.5823 49.0621 36.4961 48.2387 36.4964C41.7534 36.4964 36.4777 41.7718 36.4777 48.2565C36.4777 49.0921 36.5656 49.9072 36.7317 50.6934ZM48.2387 58.2587C42.7228 58.2587 38.236 53.7718 38.236 48.2569C38.236 42.7416 42.7228 38.2547 48.2387 38.2547C53.7544 38.2547 58.2413 42.7416 58.2413 48.2569C58.2413 53.7718 53.7544 58.2587 48.2387 58.2587Z" fill="url(#paint0_linear_517_1710)"/>
<path d="M17.7474 6.57069C17.5995 6.47 17.4243 6.41688 17.2454 6.41843C17.0664 6.41998 16.8922 6.47612 16.746 6.57936C16.4475 6.78984 16.1265 6.96659 15.789 7.10639C14.5812 6.16124 12.8306 6.17226 11.6315 7.21493C11.0129 7.752 10.6189 8.5021 10.5278 9.31623C9.88398 9.22044 9.2664 8.9945 8.71275 8.65219C8.15909 8.30989 7.68097 7.85839 7.30753 7.32524C7.21799 7.19812 7.09639 7.09696 6.95509 7.03207C6.81379 6.96717 6.65782 6.94084 6.50305 6.95576C6.34816 6.97076 6.20002 7.02661 6.07378 7.1176C5.94754 7.20858 5.8477 7.33145 5.78448 7.47364C5.7594 7.53037 5.16778 8.88205 5.24327 10.5365C5.30106 11.8025 5.75389 13.4344 7.40553 14.6946C6.80897 14.8877 6.18306 14.9742 5.55649 14.9501C5.35899 14.9425 5.16467 15.0016 5.00489 15.1179C4.8451 15.2342 4.72917 15.401 4.67579 15.5913C4.62241 15.7816 4.6347 15.9844 4.71067 16.1668C4.78664 16.3493 4.92186 16.5009 5.09452 16.597C6.47374 17.3632 7.95131 17.747 9.395 17.747C10.782 17.747 12.1374 17.3925 13.3435 16.6832C14.8558 15.7935 15.9548 14.4314 16.5514 12.7678C16.5702 12.7256 16.5858 12.6818 16.5982 12.6364C16.905 11.733 17.0657 10.7434 17.0657 9.69392C17.0657 9.6482 17.0643 9.6019 17.0625 9.55607C17.5655 8.96311 17.9232 8.26105 18.1074 7.50564C18.1496 7.33169 18.1378 7.14902 18.0735 6.98198C18.0092 6.81494 17.8954 6.67147 17.7474 6.57069ZM15.2803 9.41962C15.2978 9.51129 15.3069 9.606 15.3069 9.69673C15.3069 10.5584 15.1787 11.3566 14.9346 12.0777C14.9213 12.1112 14.9101 12.1454 14.9012 12.1803C14.4447 13.4579 13.6137 14.484 12.452 15.1677C11.3888 15.7936 10.1685 16.0601 8.92482 15.9698C9.20981 15.8287 9.48486 15.6684 9.74807 15.49C9.87772 15.4019 9.98148 15.2807 10.0486 15.139C10.1158 14.9973 10.1438 14.8403 10.13 14.6841C10.116 14.5279 10.0606 14.3783 9.96936 14.2508C9.87814 14.1232 9.75446 14.0224 9.61115 13.9588C7.96959 13.2293 7.09184 12.069 7.00252 10.5108C6.98621 10.2084 6.99696 9.90519 7.03464 9.60471C8.24389 10.6152 9.79296 11.1666 11.4098 11.1248C11.639 11.119 11.8568 11.0239 12.0169 10.8597C12.1769 10.6956 12.2665 10.4754 12.2666 10.2461V9.70083C12.2633 9.48152 12.3081 9.26416 12.3977 9.06396C12.4873 8.86376 12.6195 8.68557 12.7853 8.54187C13.4136 7.99562 14.3687 8.06197 14.9149 8.69027C15.0222 8.81352 15.1618 8.90438 15.3179 8.95261C15.2636 9.10206 15.2505 9.26342 15.2803 9.41962ZM45.3456 12.4536H46.5921V17.6961C46.5921 17.9293 46.6847 18.1529 46.8496 18.3178C47.0144 18.4826 47.238 18.5753 47.4712 18.5753C47.7044 18.5753 47.928 18.4826 48.0929 18.3178C48.2577 18.1529 48.3504 17.9293 48.3504 17.6961V12.4536H49.708C50.1933 12.4536 50.5872 12.0598 50.5872 11.5745C50.5872 11.0892 50.1933 10.6953 49.708 10.6953H48.3504V8.23557C48.3504 7.39123 49.0376 6.70385 49.8824 6.70385H51.0206C51.5062 6.70385 51.8998 6.31011 51.8998 5.8247C51.8998 5.59153 51.8072 5.36791 51.6423 5.20304C51.4774 5.03817 51.2538 4.94554 51.0206 4.94554H49.8824C48.0682 4.94554 46.5921 6.42135 46.5921 8.23557V10.6953H45.3456C44.8604 10.6953 44.4665 11.0892 44.4665 11.5745C44.4665 12.0598 44.8604 12.4536 45.3456 12.4536ZM9.76635 52.8031C9.97571 52.8031 10.1848 52.7492 10.3712 52.6416L16.3554 49.185C16.5392 49.0786 16.6917 48.9258 16.7979 48.7419C16.904 48.5581 16.96 48.3496 16.9603 48.1373C16.9603 47.7068 16.7287 47.3053 16.3554 47.0901L10.3713 43.6334C10.1874 43.5274 9.9789 43.4716 9.76665 43.4716C9.55439 43.4716 9.34586 43.5274 9.16196 43.6334C8.97819 43.7398 8.82556 43.8925 8.71933 44.0764C8.6131 44.2603 8.557 44.4688 8.55663 44.6811V51.594C8.55663 52.0248 8.78873 52.4264 9.16196 52.6416C9.34565 52.7478 9.55416 52.8035 9.76635 52.8031ZM10.3149 45.6317L14.654 48.1379L10.3149 50.6438V45.6317ZM52.0589 42.0299H44.4184C43.0915 42.0299 42.0117 43.1096 42.0117 44.4371V52.0761C42.0117 53.4035 43.0914 54.4832 44.4184 54.4832H52.0589C53.3858 54.4832 54.4654 53.4035 54.4654 52.0761V44.4371C54.4654 43.1097 53.3858 42.0299 52.0589 42.0299ZM52.7071 52.0761C52.707 52.2481 52.6387 52.413 52.5172 52.5346C52.3957 52.6563 52.2308 52.7247 52.0589 52.7249H44.4184C44.2464 52.7248 44.0815 52.6564 43.9599 52.5347C43.8384 52.4131 43.77 52.2481 43.77 52.0761V44.4371C43.7701 44.2651 43.8385 44.1002 43.96 43.9786C44.0816 43.857 44.2465 43.7885 44.4184 43.7883H52.0589C52.2308 43.7886 52.3956 43.857 52.5171 43.9787C52.6386 44.1003 52.707 44.2651 52.7071 44.4371V52.0761Z" fill="url(#paint1_linear_517_1710)"/>
<path d="M48.2388 45.5996C46.7736 45.5996 45.5812 46.7919 45.5812 48.2572C45.5812 49.7224 46.7736 50.9143 48.2388 50.9143C49.7041 50.9143 50.8963 49.7224 50.8963 48.2572C50.8963 46.7919 49.7041 45.5996 48.2388 45.5996ZM48.2388 49.156C47.743 49.156 47.3395 48.7526 47.3395 48.2572C47.3395 47.7613 47.7429 47.3579 48.2388 47.3579C48.7348 47.3579 49.138 47.7612 49.138 48.2572C49.138 48.7526 48.7347 49.156 48.2388 49.156ZM36.3624 20.8765C36.1292 20.8765 35.9056 20.9692 35.7407 21.134C35.5759 21.2989 35.4832 21.5225 35.4832 21.7557V22.1499C34.2432 22.881 32.9451 23.5088 31.6021 24.0268C30.5256 24.4408 29.4231 24.7833 28.3016 25.0521C28.1242 24.9145 27.9061 24.8398 27.6816 24.8395H23.6562C22.6838 24.8395 21.893 25.6308 21.893 26.6029V31.2199C21.893 32.1924 22.6838 32.9832 23.6564 32.9832H24.4609L24.7657 38.8452C24.7718 38.9605 24.8004 39.0734 24.8501 39.1776C24.8998 39.2818 24.9695 39.3752 25.0553 39.4525C25.1411 39.5297 25.2412 39.5893 25.35 39.6279C25.4588 39.6664 25.5742 39.6831 25.6894 39.6771C25.9223 39.665 26.1407 39.5609 26.2968 39.3877C26.4529 39.2145 26.5338 38.9865 26.5217 38.7536L26.2214 32.9832H27.6816C27.9148 32.9832 28.1294 32.9035 28.3012 32.7712C29.0149 32.9432 29.7211 33.145 30.418 33.376C30.5276 33.4124 30.6433 33.4268 30.7584 33.4184C30.8736 33.4101 30.986 33.3791 31.0892 33.3273C31.1924 33.2756 31.2843 33.2039 31.3599 33.1166C31.4354 33.0293 31.493 32.9279 31.5293 32.8183C31.5657 32.7088 31.5801 32.5931 31.5717 32.4779C31.5634 32.3628 31.5324 32.2504 31.4806 32.1472C31.4289 32.044 31.3573 31.952 31.2699 31.8765C31.1826 31.801 31.0812 31.7434 30.9716 31.707C30.2232 31.4589 29.4647 31.2422 28.6981 31.0577V26.7659C29.8997 26.4781 31.0809 26.1111 32.234 25.6675C33.3477 25.238 34.4329 24.7378 35.4829 24.17V33.6548C35.0975 33.4466 34.7073 33.2475 34.3125 33.0578C34.2085 33.0077 34.0957 32.9785 33.9804 32.9721C33.8651 32.9657 33.7497 32.982 33.6407 33.0202C33.5318 33.0584 33.4314 33.1177 33.3454 33.1947C33.2594 33.2717 33.1894 33.3649 33.1394 33.469C33.0893 33.573 33.0603 33.6859 33.0538 33.8012C33.0474 33.9165 33.0637 34.0319 33.1019 34.1409C33.1401 34.2499 33.1994 34.3503 33.2764 34.4363C33.3534 34.5224 33.4466 34.5924 33.5506 34.6425C34.2086 34.9599 34.8532 35.3042 35.4829 35.6746V36.0671C35.4829 36.3002 35.5755 36.5238 35.7404 36.6887C35.9053 36.8536 36.1289 36.9462 36.362 36.9462C36.5952 36.9462 36.8188 36.8536 36.9837 36.6887C37.1486 36.5238 37.2412 36.3002 37.2412 36.0671V21.7556C37.2413 21.6401 37.2186 21.5258 37.1744 21.4192C37.1303 21.3125 37.0656 21.2156 36.984 21.1339C36.9024 21.0523 36.8055 20.9875 36.6989 20.9434C36.5922 20.8992 36.4778 20.8765 36.3624 20.8765ZM26.9403 31.2244L23.6513 31.2199L23.6564 26.5978H26.9403V31.2244Z" fill="url(#paint2_linear_517_1710)"/>
<defs>
<linearGradient id="paint0_linear_517_1710" x1="0" y1="30.2213" x2="66.5074" y2="30.2213" gradientUnits="userSpaceOnUse">
<stop stop-color="#8548DA"/>
<stop offset="0.375222" stop-color="#4C85F4"/>
<stop offset="0.651028" stop-color="#556BBB"/>
<stop offset="1" stop-color="#CC0F97"/>
</linearGradient>
<linearGradient id="paint1_linear_517_1710" x1="0" y1="30.2213" x2="66.5074" y2="30.2213" gradientUnits="userSpaceOnUse">
<stop stop-color="#8548DA"/>
<stop offset="0.375222" stop-color="#4C85F4"/>
<stop offset="0.651028" stop-color="#556BBB"/>
<stop offset="1" stop-color="#CC0F97"/>
</linearGradient>
<linearGradient id="paint2_linear_517_1710" x1="0" y1="30.2213" x2="66.5074" y2="30.2213" gradientUnits="userSpaceOnUse">
<stop stop-color="#8548DA"/>
<stop offset="0.375222" stop-color="#4C85F4"/>
<stop offset="0.651028" stop-color="#556BBB"/>
<stop offset="1" stop-color="#CC0F97"/>
</linearGradient>
</defs>
</svg>
