<svg width="60" height="74" viewBox="0 0 60 74" fill="none" xmlns="http://www.w3.org/2000/svg">
<path d="M59.2076 29.6215C60.6746 26.7193 60.0672 23.274 57.6959 21.0487L54.362 17.9195C53.6171 17.2204 53.181 16.465 52.9479 15.4701L51.9049 11.0182C51.1632 7.8519 48.4834 5.60325 45.2363 5.42259L40.6711 5.16875C39.6509 5.11204 38.8312 4.81367 38.0131 4.20148L34.3526 1.46148C31.7491 -0.48716 28.2509 -0.48716 25.6474 1.46148L21.9869 4.20133C21.1688 4.81367 20.3491 5.11204 19.3289 5.16875L14.7637 5.42259C11.5166 5.60325 8.83669 7.8519 8.09506 11.0182L7.05223 15.4701C6.81917 16.465 6.38304 17.2204 5.63814 17.9195L2.30406 21.0487C-0.0672018 23.2742 -0.67464 26.7193 0.792444 29.6215L2.85524 33.7023C3.31616 34.6142 3.46757 35.4732 3.34644 36.4877L2.80388 41.0278C2.41792 44.2567 4.16705 47.2864 7.15644 48.5667L10.5944 50.0391L3.56436 65.1387C3.43049 65.4249 3.37789 65.7425 3.41229 66.0566C3.44669 66.3707 3.56677 66.6694 3.75942 66.9199C3.95118 67.1711 4.20835 67.3647 4.5028 67.4796C4.79724 67.5945 5.1176 67.6261 5.42883 67.5711L12.8138 66.2808L16.5805 72.7625C16.7387 73.0361 16.9691 73.2609 17.2465 73.4123C17.524 73.5637 17.8377 73.6358 18.1534 73.6208C18.4692 73.6071 18.7751 73.5068 19.0377 73.3309C19.3003 73.1551 19.5094 72.9104 19.6423 72.6236L26.2818 58.3625L28.5858 57.6662C29.5638 57.3708 30.4362 57.3708 31.4142 57.6662L33.7182 58.3626L40.3577 72.6237C40.4962 72.9228 40.7176 73.1759 40.9956 73.353C41.2736 73.5301 41.5966 73.6237 41.9262 73.6228C42.5412 73.6228 43.1079 73.2984 43.4194 72.7628L47.186 66.281L54.571 67.5713C55.2079 67.6826 55.8475 67.4329 56.2406 66.92C56.6337 66.4071 56.7083 65.7246 56.4356 65.1388L49.4059 50.0393L52.844 48.567C55.8334 47.2867 57.5825 44.257 57.1966 41.0279L56.6539 36.4879C56.5327 35.4734 56.6841 34.6143 57.1451 33.7024L59.2076 29.6215ZM18.0118 70.4983L14.4518 64.3718C14.3298 64.1618 14.1464 63.9943 13.9262 63.8918C13.7061 63.7893 13.4598 63.7568 13.2206 63.7987L6.24053 65.0181L12.6782 51.1905C12.9929 51.4704 13.2718 51.796 13.5261 52.1849L16.0287 56.0115C17.6301 58.4603 20.4516 59.6735 23.2687 59.2071L18.0118 70.4983ZM46.7794 63.7987C46.5402 63.7568 46.2939 63.7893 46.0738 63.8918C45.8536 63.9942 45.6702 64.1618 45.5482 64.3718L41.9882 70.4983L36.7312 59.2068C37.1295 59.2727 37.5279 59.3063 37.9229 59.3063C40.3215 59.3063 42.5962 58.1138 43.9711 56.0115L46.4738 52.1848C46.7281 51.7958 47.007 51.4703 47.3217 51.1903L53.7593 65.018L46.7794 63.7987ZM55.0251 32.6308C54.3587 33.9492 54.12 35.3028 54.2952 36.7696L54.8379 41.3097C55.1017 43.5167 53.9519 45.5083 51.9087 46.3834L47.7054 48.1834C46.3476 48.7649 45.2945 49.6486 44.4861 50.8848L41.9835 54.7116C40.7668 56.5718 38.6059 57.3584 36.4782 56.7155L32.1013 55.3927C31.3943 55.179 30.6972 55.0722 30.0001 55.0722C29.303 55.0722 28.6057 55.179 27.8988 55.3927L23.5219 56.7155C21.3944 57.3582 19.2333 56.5719 18.0167 54.7116L15.5141 50.885C14.7058 49.6487 13.6527 48.7652 12.2946 48.1834L8.09149 46.3834C6.04815 45.5083 4.89829 43.5166 5.16223 41.3095L5.70479 36.7695C5.88011 35.3028 5.64141 33.949 4.97504 32.6307L2.91224 28.5499C1.90949 26.5661 2.30881 24.3014 3.92954 22.7803L7.26362 19.6511C8.34058 18.6402 9.02789 17.4496 9.36471 16.0115L10.4075 11.5596C10.9145 9.39543 12.6762 7.91721 14.8956 7.79371L19.4609 7.53987C20.9357 7.45778 22.2275 6.98765 23.4101 6.10247L27.0707 3.36247C28.8501 2.03077 31.1498 2.03062 32.9293 3.36247L36.5899 6.10262C37.7725 6.9878 39.0643 7.45792 40.5391 7.54001L45.1044 7.79385C47.3238 7.91736 49.0854 9.39543 49.5923 11.5598L50.6353 16.0116C50.9723 17.4499 51.6596 18.6404 52.7365 19.6512L56.0705 22.7804C57.6912 24.3017 58.0905 26.5662 57.0878 28.5501L55.0251 32.6308ZM29.9999 9.74042C19.0209 9.74042 10.0887 18.6725 10.0887 29.6515C10.0887 40.6307 19.0208 49.5628 29.9999 49.5628C40.9791 49.5628 49.911 40.6307 49.911 29.6515C49.9112 18.6725 40.9791 9.74042 29.9999 9.74042ZM29.9999 47.1876C20.3305 47.1876 12.4638 39.3209 12.4638 29.6515C12.4638 19.9821 20.3305 12.1155 29.9999 12.1155C39.6693 12.1155 47.5359 19.9822 47.5359 29.6515C47.5361 39.3209 39.6693 47.1876 29.9999 47.1876ZM34.3314 29.9077C35.7994 28.6715 36.7344 26.8216 36.7344 24.7565C36.7344 21.0432 33.7134 18.0222 30.0001 18.0222C26.2867 18.0222 23.2657 21.0432 23.2657 24.7565C23.2657 26.8214 24.2008 28.6713 25.6687 29.9077C21.5017 31.489 18.4121 35.2929 17.912 39.967C17.8943 40.1326 17.9116 40.3002 17.9629 40.4587C18.0142 40.6172 18.0982 40.7632 18.2096 40.8871C18.3209 41.011 18.4571 41.1101 18.6093 41.1779C18.7614 41.2458 18.9262 41.2808 19.0928 41.2809H40.9072C41.0739 41.2809 41.2386 41.2459 41.3908 41.1781C41.543 41.1103 41.6792 41.0112 41.7906 40.8872C41.902 40.7633 41.986 40.6173 42.0372 40.4588C42.0885 40.3002 42.1058 40.1326 42.088 39.967C41.5879 35.293 38.4983 31.4891 34.3314 29.9077ZM25.6408 24.7565C25.6408 22.3529 27.5963 20.3973 30.0001 20.3973C32.4039 20.3973 34.3593 22.3528 34.3593 24.7565C34.3593 27.1593 32.4053 29.114 30.003 29.1156H29.9971C27.5948 29.1141 25.6408 27.1593 25.6408 24.7565ZM20.5045 38.9057C21.5665 34.5985 25.4376 31.4922 29.997 31.4909L30.0001 31.491L30.0032 31.4909C34.5624 31.4924 38.4335 34.5986 39.4955 38.9057H20.5045Z" fill="url(#paint0_linear_59_27673)"/>
<defs>
<linearGradient id="paint0_linear_59_27673" x1="0" y1="37.0725" x2="66.5074" y2="37.0725" gradientUnits="userSpaceOnUse">
<stop stop-color="#8548DA"/>
<stop offset="0.375222" stop-color="#4C85F4"/>
<stop offset="0.651028" stop-color="#556BBB"/>
<stop offset="1" stop-color="#CC0F97"/>
</linearGradient>
</defs>
</svg>
