<svg width="60" height="60" viewBox="0 0 60 60" fill="none" xmlns="http://www.w3.org/2000/svg">
<path d="M33 6H27C26.7348 6 26.4804 5.89464 26.2929 5.70711C26.1054 5.51957 26 5.26522 26 5C26 4.73478 26.1054 4.48043 26.2929 4.29289C26.4804 4.10536 26.7348 4 27 4H33C33.2652 4 33.5196 4.10536 33.7071 4.29289C33.8946 4.48043 34 4.73478 34 5C34 5.26522 33.8946 5.51957 33.7071 5.70711C33.5196 5.89464 33.2652 6 33 6ZM41 60H19C17.6744 59.9984 16.4036 59.4711 15.4662 58.5338C14.5289 57.5964 14.0016 56.3256 14 55V21C14 20.7348 14.1054 20.4804 14.2929 20.2929C14.4804 20.1054 14.7348 20 15 20C15.2652 20 15.5196 20.1054 15.7071 20.2929C15.8946 20.4804 16 20.7348 16 21V55C16 56.654 17.346 58 19 58H41C42.654 58 44 56.654 44 55V21C44 20.7348 44.1054 20.4804 44.2929 20.2929C44.4804 20.1054 44.7348 20 45 20C45.2652 20 45.5196 20.1054 45.7071 20.2929C45.8946 20.4804 46 20.7348 46 21V55C46 57.756 43.758 60 41 60Z" fill="url(#paint0_linear_517_1706)"/>
<path d="M45 28C44.7348 28 44.4804 27.8946 44.2929 27.7071C44.1054 27.5196 44 27.2652 44 27V5C44 3.346 42.654 2 41 2H19C17.346 2 16 3.346 16 5V27C16 27.2652 15.8946 27.5196 15.7071 27.7071C15.5196 27.8946 15.2652 28 15 28C14.7348 28 14.4804 27.8946 14.2929 27.7071C14.1054 27.5196 14 27.2652 14 27V5C14 2.244 16.242 0 19 0H41C43.758 0 46 2.244 46 5V27C46 27.2652 45.8946 27.5196 45.7071 27.7071C45.5196 27.8946 45.2652 28 45 28ZM51 10.1C50.448 10.1 50 9.752 50 9.2V9C50 8.73478 50.1054 8.48043 50.2929 8.29289C50.4804 8.10536 50.7348 8 51 8C51.2652 8 51.5196 8.10536 51.7071 8.29289C51.8946 8.48043 52 8.73478 52 9C52 9.552 51.552 10.1 51 10.1ZM51 14.1C50.448 14.1 50 13.752 50 13.2V13C50 12.7348 50.1054 12.4804 50.2929 12.2929C50.4804 12.1054 50.7348 12 51 12C51.2652 12 51.5196 12.1054 51.7071 12.2929C51.8946 12.4804 52 12.7348 52 13C52 13.552 51.552 14.1 51 14.1ZM51 18.1C50.448 18.1 50 17.752 50 17.2V17C50 16.7348 50.1054 16.4804 50.2929 16.2929C50.4804 16.1054 50.7348 16 51 16C51.2652 16 51.5196 16.1054 51.7071 16.2929C51.8946 16.4804 52 16.7348 52 17C52 17.552 51.552 18.1 51 18.1ZM9 43.9C8.448 43.9 8 43.552 8 43V42.8C8 42.5348 8.10536 42.2804 8.29289 42.0929C8.48043 41.9054 8.73478 41.8 9 41.8C9.26522 41.8 9.51957 41.9054 9.70711 42.0929C9.89464 42.2804 10 42.5348 10 42.8C10 43.352 9.552 43.9 9 43.9ZM9 47.9C8.448 47.9 8 47.552 8 47V46.8C8 46.5348 8.10536 46.2804 8.29289 46.0929C8.48043 45.9054 8.73478 45.8 9 45.8C9.26522 45.8 9.51957 45.9054 9.70711 46.0929C9.89464 46.2804 10 46.5348 10 46.8C10 47.352 9.552 47.9 9 47.9ZM9 51.9C8.448 51.9 8 51.552 8 51V50.8C8 50.5348 8.10536 50.2804 8.29289 50.0929C8.48043 49.9054 8.73478 49.8 9 49.8C9.26522 49.8 9.51957 49.9054 9.70711 50.0929C9.89464 50.2804 10 50.5348 10 50.8C10 51.352 9.552 51.9 9 51.9Z" fill="url(#paint1_linear_517_1706)"/>
<path d="M47.682 52C47.5328 52 47.3855 51.9667 47.2509 51.9025C47.1163 51.8382 46.9977 51.7446 46.904 51.6286C46.8102 51.5126 46.7436 51.3771 46.709 51.232C46.6744 51.0869 46.6727 50.9358 46.704 50.79L47.364 47.73C47.4034 47.5462 47.4939 47.3773 47.6252 47.2428C47.7565 47.1084 47.9232 47.0138 48.106 46.97C49.071 46.7334 49.9934 46.3481 50.84 45.828C50.9996 45.7306 51.1834 45.6798 51.3704 45.6816C51.5575 45.6834 51.7402 45.7376 51.898 45.838L53.878 47.104L55.104 45.868L53.838 43.904C53.7364 43.7461 53.6812 43.5628 53.6787 43.375C53.6762 43.1872 53.7266 43.0025 53.824 42.842C54.3443 41.9957 54.729 41.0732 54.964 40.108C55.008 39.9258 55.1021 39.7595 55.2357 39.628C55.3693 39.4965 55.5371 39.4051 55.72 39.364L58 38.858V37.144L55.722 36.638C55.5391 36.5969 55.3713 36.5055 55.2377 36.374C55.1041 36.2425 55.01 36.0762 54.966 35.894C54.7301 34.9291 54.3455 34.0067 53.826 33.16C53.7278 33.0002 53.6768 32.8158 53.6789 32.6283C53.681 32.4407 53.7362 32.2575 53.838 32.1L55.106 30.118L53.882 28.894L51.9 30.162C51.7424 30.2629 51.5596 30.3173 51.3724 30.3191C51.1853 30.3209 51.0015 30.2699 50.842 30.172C49.995 29.6526 49.0728 29.2674 48.108 29.03C47.9252 28.9862 47.7585 28.8916 47.6272 28.7572C47.4959 28.6227 47.4054 28.4538 47.366 28.27L46.874 26H46C45.7348 26 45.4804 25.8946 45.2929 25.7071C45.1054 25.5196 45 25.2652 45 25C45 24.7348 45.1054 24.4804 45.2929 24.2929C45.4804 24.1054 45.7348 24 46 24H47.68C47.9085 24.0004 48.1299 24.079 48.3074 24.2227C48.485 24.3664 48.608 24.5666 48.656 24.79L49.19 27.256C49.922 27.478 50.64 27.778 51.332 28.152L53.48 26.778C53.6721 26.6553 53.9003 26.6018 54.127 26.6266C54.3536 26.6513 54.5649 26.7527 54.726 26.914L57.088 29.274C57.249 29.4353 57.35 29.6468 57.3744 29.8734C57.3988 30.1 57.345 30.3281 57.222 30.52L55.848 32.668C56.222 33.362 56.522 34.08 56.744 34.814L59.214 35.362C59.674 35.464 60 35.872 60 36.34V39.66C59.9999 39.8876 59.9222 40.1084 59.7796 40.2859C59.6371 40.4633 59.4382 40.5868 59.216 40.636L56.746 41.184C56.5203 41.927 56.2201 42.6453 55.85 43.328L57.222 45.456C57.3462 45.6472 57.4011 45.8752 57.3774 46.102C57.3538 46.3288 57.253 46.5406 57.092 46.702L54.73 49.082C54.5688 49.2438 54.3573 49.3456 54.1303 49.3707C53.9033 49.3958 53.6746 49.3426 53.482 49.22L51.334 47.846C50.6517 48.2154 49.9341 48.5155 49.192 48.742L48.658 51.208C48.6101 51.4316 48.4872 51.632 48.3096 51.7761C48.1321 51.9201 47.9106 51.9991 47.682 52Z" fill="url(#paint2_linear_517_1706)"/>
<path d="M48.7821 43.1562C48.5679 43.1559 48.3595 43.0868 48.1876 42.9591C48.0156 42.8314 47.8893 42.6519 47.827 42.447C47.7647 42.242 47.7699 42.0226 47.8418 41.8208C47.9136 41.6191 48.0483 41.4457 48.2261 41.3262C48.9936 40.809 49.5583 40.0417 49.8239 39.155C50.0896 38.2684 50.0398 37.317 49.6831 36.4629C49.3265 35.6088 48.6849 34.9046 47.8675 34.4702C47.0502 34.0358 46.1075 33.898 45.2001 34.0803C45.0714 34.1066 44.9387 34.1074 44.8097 34.0826C44.6807 34.0577 44.5579 34.0077 44.4482 33.9353C44.3385 33.863 44.2442 33.7698 44.1706 33.661C44.0969 33.5522 44.0454 33.4299 44.0191 33.3012C43.9927 33.1726 43.9919 33.0399 44.0167 32.9109C44.0416 32.7819 44.0916 32.6591 44.164 32.5494C44.2363 32.4397 44.3295 32.3454 44.4383 32.2718C44.5471 32.1981 44.6694 32.1466 44.798 32.1203C45.6699 31.9435 46.5701 31.9625 47.4336 32.1759C48.2972 32.3894 49.1026 32.7919 49.7917 33.3545C50.4808 33.9171 51.0363 34.6257 51.4182 35.4291C51.8001 36.2325 51.9988 37.1107 52 38.0003C52.0003 38.9861 51.7575 39.9568 51.2932 40.8265C50.8289 41.6961 50.1573 42.4379 49.3381 42.9863C49.1737 43.0968 48.9801 43.156 48.7821 43.1562ZM14 28.0003C12.7109 28.002 11.4555 27.5883 10.4199 26.8205C9.38435 26.0528 8.62368 24.9718 8.25066 23.7378C7.87763 22.5038 7.9121 21.1825 8.34897 19.9697C8.78583 18.7568 9.60184 17.717 10.676 17.0042C10.8967 16.8665 11.1624 16.8201 11.4167 16.875C11.6709 16.9299 11.8938 17.0817 12.038 17.2983C12.1822 17.5148 12.2363 17.779 12.1889 18.0348C12.1415 18.2905 11.9963 18.5178 11.784 18.6683C11.0165 19.1835 10.4509 19.9485 10.1832 20.8334C9.91554 21.7183 9.96234 22.6686 10.3156 23.5229C10.669 24.3772 11.307 25.0829 12.1215 25.5203C12.936 25.9576 13.8767 26.0997 14.784 25.9223C15.0441 25.8709 15.314 25.9246 15.5346 26.0714C15.7553 26.2183 15.909 26.4465 15.962 26.7062C15.988 26.835 15.9883 26.9675 15.9629 27.0963C15.9375 27.2252 15.8869 27.3477 15.8141 27.4569C15.7413 27.5662 15.6476 27.66 15.5384 27.733C15.4293 27.806 15.3068 27.8567 15.178 27.8823C14.7904 27.9612 14.3957 28.0007 14 28.0003Z" fill="url(#paint3_linear_517_1706)"/>
<path d="M14 35.9997H12.32C12.0915 35.9994 11.8701 35.9208 11.6925 35.777C11.515 35.6333 11.392 35.4331 11.344 35.2097L10.81 32.7438C10.0678 32.5177 9.35016 32.2175 8.668 31.8477L6.52 33.2217C6.32791 33.3445 6.09966 33.3979 5.87305 33.3732C5.64644 33.3484 5.43509 33.247 5.274 33.0857L2.912 30.7258C2.75102 30.5644 2.64998 30.3529 2.62561 30.1263C2.60124 29.8997 2.65501 29.6716 2.778 29.4797L4.152 27.3318C3.78225 26.6482 3.48208 25.9293 3.256 25.1858L0.786 24.6378C0.56322 24.5886 0.363893 24.4648 0.220974 24.287C0.0780544 24.1092 0.000100556 23.8879 0 23.6598V20.3398C8.95417e-05 20.1121 0.0778312 19.8914 0.22038 19.7139C0.362928 19.5364 0.561752 19.4129 0.784 19.3638L3.254 18.8158C3.476 18.0818 3.776 17.3638 4.15 16.6718L2.78 14.5418C2.65578 14.3506 2.60091 14.1225 2.62458 13.8958C2.64824 13.669 2.74899 13.4572 2.91 13.2958L5.272 10.9158C5.43258 10.753 5.64427 10.6505 5.87152 10.6253C6.09876 10.6002 6.32774 10.654 6.52 10.7778L8.668 12.1518C9.35032 11.7824 10.0679 11.4822 10.81 11.2558L11.344 8.78975C11.3682 8.65804 11.4187 8.53254 11.4923 8.4207C11.5659 8.30885 11.6613 8.21293 11.7727 8.13863C11.8841 8.06434 12.0093 8.01318 12.1409 7.98819C12.2725 7.9632 12.4077 7.96489 12.5386 7.99316C12.6695 8.02143 12.7934 8.0757 12.9029 8.15276C13.0124 8.22982 13.1054 8.32809 13.1762 8.44174C13.247 8.55539 13.2943 8.68212 13.3152 8.81439C13.3361 8.94666 13.3303 9.08179 13.298 9.21175L12.638 12.2718C12.5986 12.4555 12.5081 12.6244 12.3768 12.7589C12.2455 12.8934 12.0788 12.988 11.896 13.0318C10.9305 13.2687 10.0075 13.654 9.16 14.1738C9.00036 14.2712 8.81659 14.3219 8.62957 14.3201C8.44255 14.3184 8.25977 14.2642 8.102 14.1638L6.122 12.8978L4.894 14.1338L6.16 16.0978C6.26252 16.2553 6.31825 16.4387 6.32073 16.6267C6.32321 16.8147 6.27233 16.9995 6.174 17.1598C5.65368 18.006 5.26902 18.9285 5.034 19.8937C4.99001 20.076 4.89588 20.2422 4.76227 20.3737C4.62866 20.5052 4.46091 20.5967 4.278 20.6378L2 21.1418V22.8558L4.278 23.3618C4.46091 23.4028 4.62866 23.4943 4.76227 23.6258C4.89588 23.7573 4.99001 23.9235 5.034 24.1058C5.26 25.0498 5.646 25.9698 6.174 26.8398C6.374 27.1658 6.37 27.5778 6.162 27.8997L4.894 29.8797L6.118 31.1038L8.1 29.8358C8.25794 29.7358 8.44065 29.6818 8.62758 29.6801C8.8145 29.6783 8.9982 29.7288 9.158 29.8258C10.03 30.3558 10.95 30.7397 11.892 30.9677C12.0748 31.0115 12.2415 31.1061 12.3728 31.2406C12.5041 31.3751 12.5946 31.544 12.634 31.7278L13.126 33.9997H14C14.2652 33.9997 14.5196 34.1051 14.7071 34.2926C14.8946 34.4802 15 34.7345 15 34.9997C15 35.265 14.8946 35.5193 14.7071 35.7069C14.5196 35.8944 14.2652 35.9997 14 35.9997ZM29 34.9997C28.848 35.0001 28.6979 34.9657 28.5612 34.8992C28.4245 34.8327 28.3047 34.7359 28.2112 34.616C28.1176 34.4962 28.0526 34.3566 28.0212 34.2079C27.9898 34.0591 27.9928 33.9052 28.03 33.7578L30.03 25.7577C30.0608 25.6298 30.1168 25.5093 30.1947 25.4033C30.2726 25.2972 30.3708 25.2077 30.4836 25.14C30.5963 25.0722 30.7215 25.0276 30.8517 25.0086C30.9819 24.9897 31.1146 24.9969 31.242 25.0298C31.3695 25.0613 31.4895 25.1178 31.5952 25.1958C31.7008 25.2739 31.79 25.372 31.8576 25.4846C31.9253 25.5972 31.97 25.722 31.9893 25.852C32.0086 25.9819 32.002 26.1144 31.97 26.2418L29.97 34.2418C29.9167 34.4585 29.792 34.6511 29.6161 34.7886C29.4402 34.926 29.2232 35.0004 29 34.9997ZM35 34.9997C34.8024 34.9997 34.6092 34.9411 34.4448 34.8314C34.2805 34.7216 34.1523 34.5656 34.0766 34.3831C34.0008 34.2005 33.9809 33.9996 34.0192 33.8058C34.0575 33.6119 34.1525 33.4337 34.292 33.2937L37.586 29.9998L34.294 26.7078C34.1118 26.5191 34.011 26.2665 34.0133 26.0043C34.0156 25.7422 34.1208 25.4913 34.3062 25.3059C34.4916 25.1205 34.7424 25.0154 35.0046 25.0131C35.2668 25.0108 35.5194 25.1116 35.708 25.2938L39.708 29.2938C39.8955 29.4813 40.0008 29.7356 40.0008 30.0007C40.0008 30.2659 39.8955 30.5202 39.708 30.7078L35.708 34.7077C35.5199 34.8948 35.2653 34.9998 35 34.9997ZM25 34.9997C24.7347 34.9998 24.4801 34.8948 24.292 34.7077L20.292 30.7078C20.1045 30.5202 19.9992 30.2659 19.9992 30.0007C19.9992 29.7356 20.1045 29.4813 20.292 29.2938L24.292 25.2938C24.4806 25.1116 24.7332 25.0108 24.9954 25.0131C25.2576 25.0154 25.5084 25.1205 25.6938 25.3059C25.8792 25.4913 25.9844 25.7422 25.9867 26.0043C25.989 26.2665 25.8882 26.5191 25.706 26.7078L22.414 29.9998L25.706 33.2917C25.8461 33.4315 25.9416 33.6097 25.9804 33.8037C26.0192 33.9977 25.9995 34.1989 25.924 34.3818C25.8484 34.5646 25.7202 34.7209 25.5558 34.831C25.3913 34.941 25.1979 34.9997 25 34.9997Z" fill="url(#paint4_linear_517_1706)"/>
<defs>
<linearGradient id="paint0_linear_517_1706" x1="0" y1="30.2128" x2="66.5074" y2="30.2128" gradientUnits="userSpaceOnUse">
<stop stop-color="#8548DA"/>
<stop offset="0.375222" stop-color="#4C85F4"/>
<stop offset="0.651028" stop-color="#556BBB"/>
<stop offset="1" stop-color="#CC0F97"/>
</linearGradient>
<linearGradient id="paint1_linear_517_1706" x1="0" y1="30.2128" x2="66.5074" y2="30.2128" gradientUnits="userSpaceOnUse">
<stop stop-color="#8548DA"/>
<stop offset="0.375222" stop-color="#4C85F4"/>
<stop offset="0.651028" stop-color="#556BBB"/>
<stop offset="1" stop-color="#CC0F97"/>
</linearGradient>
<linearGradient id="paint2_linear_517_1706" x1="0" y1="30.2128" x2="66.5074" y2="30.2128" gradientUnits="userSpaceOnUse">
<stop stop-color="#8548DA"/>
<stop offset="0.375222" stop-color="#4C85F4"/>
<stop offset="0.651028" stop-color="#556BBB"/>
<stop offset="1" stop-color="#CC0F97"/>
</linearGradient>
<linearGradient id="paint3_linear_517_1706" x1="0" y1="30.2128" x2="66.5074" y2="30.2128" gradientUnits="userSpaceOnUse">
<stop stop-color="#8548DA"/>
<stop offset="0.375222" stop-color="#4C85F4"/>
<stop offset="0.651028" stop-color="#556BBB"/>
<stop offset="1" stop-color="#CC0F97"/>
</linearGradient>
<linearGradient id="paint4_linear_517_1706" x1="0" y1="30.2128" x2="66.5074" y2="30.2128" gradientUnits="userSpaceOnUse">
<stop stop-color="#8548DA"/>
<stop offset="0.375222" stop-color="#4C85F4"/>
<stop offset="0.651028" stop-color="#556BBB"/>
<stop offset="1" stop-color="#CC0F97"/>
</linearGradient>
</defs>
</svg>
