<svg width="60" height="60" viewBox="0 0 60 60" fill="none" xmlns="http://www.w3.org/2000/svg">
<path d="M33.018 52.9092C33.018 53.0821 32.9493 53.248 32.827 53.3703C32.7047 53.4926 32.5388 53.5613 32.3658 53.5613H27.4533C27.2803 53.5613 27.1144 53.4926 26.9921 53.3703C26.8698 53.248 26.8011 53.0821 26.8011 52.9092C26.8011 52.7362 26.8698 52.5703 26.9921 52.448C27.1144 52.3257 27.2803 52.257 27.4533 52.257H32.3658C32.5388 52.257 32.7047 52.3257 32.827 52.448C32.9493 52.5703 33.018 52.7362 33.018 52.9092ZM60 47.9932V55.4913C60 57.9773 57.9773 59.9999 55.4913 59.9999H41.3328C39.6427 59.9999 38.1674 59.0645 37.3957 57.6847H21.1553C17.8805 57.6847 15.2163 55.0204 15.2163 51.7457V33.6621H11.7625C11.5895 33.6621 11.4236 33.5934 11.3013 33.4711C11.179 33.3488 11.1103 33.1829 11.1103 33.0099V16.9642H4.62248C2.07352 16.9642 0 14.8906 0 12.3417V4.62235C0 2.07352 2.07352 0 4.62235 0H18.9023C21.4512 0 23.5248 2.07352 23.5248 4.62235V8.51348H38.6635C40.6539 8.51348 42.5077 9.53009 43.6015 11.1638L51.0514 3.71387C51.1737 3.59157 51.3396 3.52286 51.5125 3.52286C51.6855 3.52286 51.8514 3.59157 51.9737 3.71387L54.9102 6.65022C54.9707 6.71076 55.0188 6.78263 55.0516 6.86174C55.0844 6.94085 55.1012 7.02564 55.1012 7.11128C55.1013 7.19691 55.0844 7.28171 55.0516 7.36083C55.0189 7.43994 54.9709 7.51183 54.9103 7.57239L44.6027 17.8801V39.0102H48.412C48.585 39.0102 48.7509 39.0789 48.8732 39.2012C48.9955 39.3235 49.0642 39.4894 49.0642 39.6623V43.4849H55.4913C57.9773 43.4846 60 45.5073 60 47.9932ZM44.6027 40.3143V43.4846H47.7599V40.3143H44.6027ZM35.248 21.3617L34.333 24.2909L37.2622 23.3759L53.5269 7.11117L51.5127 5.09726L35.248 21.3617ZM35.3489 25.3401L33.534 25.907C33.4204 25.9425 33.2993 25.9462 33.1837 25.9178C33.0681 25.8894 32.9626 25.8298 32.8784 25.7456C32.7943 25.6615 32.7347 25.5559 32.7063 25.4403C32.6778 25.3248 32.6816 25.2036 32.7171 25.09L33.3785 22.9727C32.3645 22.2539 31.1525 21.8673 29.9096 21.8662C26.8238 21.8662 24.275 24.2095 23.9489 27.21H35.8701C35.799 26.5625 35.623 25.931 35.3489 25.3401ZM29.9095 20.5619C31.3401 20.5619 32.504 19.398 32.504 17.9674C32.504 16.5368 31.3401 15.3729 29.9095 15.3729C28.479 15.3729 27.3151 16.5368 27.3151 17.9674C27.3151 19.398 28.4789 20.5619 29.9095 20.5619ZM4.62235 15.6599H18.9023C20.732 15.6599 22.2205 14.1713 22.2205 12.3419V4.62235C22.2205 2.79287 20.732 1.30435 18.9023 1.30435H4.62235C2.79287 1.30435 1.30435 2.79287 1.30435 4.62235V12.3417C1.30435 14.1712 2.79287 15.6599 4.62235 15.6599ZM15.2163 32.3577V16.9642H12.4147V32.3579H15.2163V32.3577ZM21.0061 34.7461V33.6621H16.5205V48.5472H36.8241V47.9932C36.8241 45.5071 38.8466 43.4846 41.3327 43.4846H43.2982V40.3143H38.8127V41.3983C38.8127 41.5713 38.744 41.7372 38.6217 41.8595C38.4994 41.9818 38.3335 42.0505 38.1605 42.0505H21.6583C21.4853 42.0505 21.3195 41.9818 21.1971 41.8595C21.0748 41.7372 21.0061 41.5713 21.0061 41.3983V37.9259C21.0061 37.7529 21.0748 37.587 21.1971 37.4647C21.3195 37.3424 21.4853 37.2737 21.6583 37.2737H38.1607C38.2463 37.2737 38.3311 37.2906 38.4102 37.3233C38.4894 37.3561 38.5612 37.4042 38.6218 37.4647C38.6824 37.5253 38.7304 37.5972 38.7632 37.6763C38.796 37.7554 38.8128 37.8402 38.8128 37.9259V39.01H43.2983V19.1843L38.071 24.4117C37.9965 24.4862 37.905 24.5416 37.8043 24.573L36.6034 24.9481C37.0031 25.8676 37.2095 26.8594 37.2098 27.862C37.2098 28.035 37.1411 28.2009 37.0188 28.3232C36.8965 28.4455 36.7306 28.5142 36.5576 28.5142H23.2613C23.0884 28.5142 22.9225 28.4455 22.8002 28.3232C22.6779 28.2009 22.6092 28.035 22.6092 27.862C22.6092 24.6995 24.6309 22.0013 27.4495 20.9893C26.5722 20.2737 26.0107 19.185 26.0107 17.9673C26.0107 15.8176 27.7597 14.0684 29.9093 14.0684C32.059 14.0684 33.8082 15.8174 33.8082 17.9673C33.8082 19.185 33.2467 20.2739 32.3692 20.9893C32.864 21.1662 33.3383 21.3959 33.7839 21.6743L34.0509 20.8195C34.0824 20.7189 34.1377 20.6274 34.2123 20.5529L42.6548 12.1103C41.8246 10.7054 40.3042 9.81756 38.6636 9.81756H23.5248V12.3416C23.5248 14.8904 21.4512 16.964 18.9023 16.964H16.5205V32.3576H21.0061V31.2734C21.0061 31.1005 21.0748 30.9346 21.1971 30.8123C21.3195 30.69 21.4853 30.6213 21.6583 30.6213H38.1607C38.3336 30.6213 38.4995 30.69 38.6218 30.8123C38.7441 30.9346 38.8128 31.1005 38.8128 31.2734V34.7459C38.8128 34.9188 38.7441 35.0847 38.6218 35.207C38.4995 35.3293 38.3336 35.398 38.1607 35.398H21.6583C21.5727 35.3981 21.4879 35.3812 21.4087 35.3485C21.3296 35.3157 21.2577 35.2677 21.1972 35.2072C21.1366 35.1467 21.0886 35.0748 21.0558 34.9957C21.023 34.9166 21.0061 34.8318 21.0061 34.7461ZM37.5085 34.094V31.9259H22.3105V34.094H37.5085ZM22.3105 38.578V40.7461H37.5085V38.578H22.3105ZM36.9127 56.3804C36.8538 56.0877 36.8242 55.7899 36.8242 55.4914V49.8517H16.5206V51.7458C16.5206 54.3014 18.5997 56.3804 21.1553 56.3804H36.9127ZM58.6957 47.9932C58.6957 46.2263 57.2581 44.789 55.4913 44.789H41.3328C39.566 44.789 38.1286 46.2265 38.1286 47.9932V55.4913C38.1286 57.2581 39.5661 58.6955 41.3328 58.6955H55.4913C57.2581 58.6957 58.6957 57.2581 58.6957 55.4914V47.9932ZM17.8277 5.43313H5.69726C5.52429 5.43313 5.35841 5.50184 5.2361 5.62415C5.1138 5.74645 5.04509 5.91234 5.04509 6.0853C5.04509 6.25827 5.1138 6.42415 5.2361 6.54646C5.35841 6.66877 5.52429 6.73748 5.69726 6.73748H17.8277C18.0007 6.73748 18.1665 6.66877 18.2889 6.54646C18.4112 6.42415 18.4799 6.25827 18.4799 6.0853C18.4799 5.91234 18.4112 5.74645 18.2889 5.62415C18.1665 5.50184 18.0007 5.43313 17.8277 5.43313ZM17.8277 10.2266H5.69726C5.52429 10.2266 5.35841 10.2953 5.2361 10.4176C5.1138 10.5399 5.04509 10.7058 5.04509 10.8788C5.04509 11.0517 5.1138 11.2176 5.2361 11.3399C5.35841 11.4622 5.52429 11.531 5.69726 11.531H17.8277C18.0007 11.531 18.1665 11.4622 18.2889 11.3399C18.4112 11.2176 18.4799 11.0517 18.4799 10.8788C18.4799 10.7058 18.4112 10.5399 18.2889 10.4176C18.1665 10.2953 18.0007 10.2266 17.8277 10.2266ZM54.4773 53.4867H42.3468C42.1739 53.4867 42.008 53.5555 41.8857 53.6778C41.7634 53.8001 41.6947 53.9659 41.6947 54.1389C41.6947 54.3119 41.7634 54.4778 41.8857 54.6001C42.008 54.7224 42.1739 54.7911 42.3468 54.7911H54.4773C54.6502 54.7911 54.8161 54.7224 54.9384 54.6001C55.0607 54.4778 55.1294 54.3119 55.1294 54.1389C55.1294 53.9659 55.0607 53.8001 54.9384 53.6778C54.8161 53.5555 54.6502 53.4867 54.4773 53.4867ZM54.4773 48.6933H42.3468C42.1739 48.6933 42.008 48.762 41.8857 48.8843C41.7634 49.0066 41.6947 49.1725 41.6947 49.3454C41.6947 49.5184 41.7634 49.6843 41.8857 49.8066C42.008 49.9289 42.1739 49.9976 42.3468 49.9976H54.4773C54.6502 49.9976 54.8161 49.9289 54.9384 49.8066C55.0607 49.6843 55.1294 49.5184 55.1294 49.3454C55.1294 49.1725 55.0607 49.0066 54.9384 48.8843C54.8161 48.762 54.6502 48.6933 54.4773 48.6933Z" fill="url(#paint0_linear_504_242)"/>
<defs>
<linearGradient id="paint0_linear_504_242" x1="0" y1="30.2127" x2="66.5074" y2="30.2127" gradientUnits="userSpaceOnUse">
<stop stop-color="#8548DA"/>
<stop offset="0.375222" stop-color="#4C85F4"/>
<stop offset="0.651028" stop-color="#556BBB"/>
<stop offset="1" stop-color="#CC0F97"/>
</linearGradient>
</defs>
</svg>
